<svg width="258" height="75" viewBox="0 0 258 75" fill="none" xmlns="http://www.w3.org/2000/svg">
<path d="M256.567 66.3506C256.567 70.3474 253.282 73.5849 249.22 73.5849H8.78983C4.7293 73.5849 1.43335 70.3474 1.43335 66.3506V8.6589C1.43335 4.66395 4.7293 1.4151 8.78983 1.4151H249.218C253.282 1.4151 256.565 4.66395 256.565 8.6589L256.567 66.3506Z" fill="black"/>
<path d="M248.444 1.50235C252.869 1.50235 256.469 5.03439 256.469 9.37501V65.625C256.469 69.9656 252.869 73.4977 248.444 73.4977H9.55556C5.13133 73.4977 1.53128 69.9656 1.53128 65.625V9.37501C1.53128 5.03439 5.13133 1.50235 9.55556 1.50235H248.444ZM248.444 7.62939e-06H9.55556C4.30239 7.62939e-06 0 4.2211 0 9.37501V65.625C0 70.7789 4.30239 75 9.55556 75H248.444C253.698 75 258 70.7789 258 65.625V9.37501C258 4.2211 253.698 7.62939e-06 248.444 7.62939e-06Z" fill="#A6A6A6"/>
<path d="M57.578 37.095C57.5225 31.0519 62.6214 28.1119 62.8545 27.975C59.9668 23.8444 55.491 23.28 53.9182 23.235C50.159 22.8469 46.5126 25.4419 44.5977 25.4419C42.6445 25.4419 39.6957 23.2725 36.5175 23.3362C32.4277 23.3981 28.6017 25.7212 26.5033 29.3287C22.1727 36.6844 25.4025 47.4937 29.5515 53.4394C31.627 56.3512 34.0522 59.6025 37.2265 59.4881C40.3321 59.3625 41.4921 57.5456 45.2398 57.5456C48.9531 57.5456 50.0424 59.4881 53.2799 59.415C56.6128 59.3625 58.7112 56.49 60.7141 53.5519C63.1125 50.2144 64.0757 46.9275 64.114 46.7587C64.0356 46.7325 57.641 44.3381 57.578 37.095Z" fill="white"/>
<path d="M51.4624 19.3237C53.1327 17.2744 54.2756 14.4862 53.9583 11.6569C51.5408 11.7619 48.5174 13.2975 46.7764 15.3019C45.236 17.0681 43.86 19.9631 44.2155 22.6856C46.9312 22.8844 49.7195 21.3412 51.4624 19.3237Z" fill="white"/>
<path d="M93.74 18.7669C93.74 20.9737 93.0654 22.635 91.7181 23.7506C90.4701 24.78 88.6966 25.2956 86.3995 25.2956C85.2604 25.2956 84.2858 25.2469 83.4697 25.1494V13.0912C84.5342 12.9225 85.6809 12.8362 86.9193 12.8362C89.1075 12.8362 90.7568 13.3031 91.8691 14.2369C93.1151 15.2925 93.74 16.8019 93.74 18.7669ZM91.6283 18.8212C91.6283 17.3906 91.2422 16.2937 90.4701 15.5287C89.698 14.7656 88.5705 14.3831 87.0856 14.3831C86.4549 14.3831 85.9179 14.4244 85.4726 14.5106V23.6775C85.7191 23.715 86.1701 23.7319 86.8256 23.7319C88.3584 23.7319 89.5413 23.3137 90.3746 22.4775C91.2078 21.6412 91.6283 20.4225 91.6283 18.8212Z" fill="white"/>
<path d="M104.937 20.6944C104.937 22.0537 104.542 23.1675 103.75 24.0412C102.921 24.9394 101.822 25.3875 100.45 25.3875C99.1275 25.3875 98.0745 24.9581 97.289 24.0956C96.5054 23.235 96.1136 22.1494 96.1136 20.8406C96.1136 19.4719 96.5169 18.3487 97.3272 17.4769C98.1375 16.605 99.2269 16.1681 100.599 16.1681C101.922 16.1681 102.984 16.5975 103.789 17.4581C104.553 18.2944 104.937 19.3744 104.937 20.6944ZM102.86 20.7581C102.86 19.9425 102.68 19.2431 102.323 18.66C101.902 17.955 101.304 17.6025 100.526 17.6025C99.7218 17.6025 99.1103 17.955 98.6898 18.66C98.3305 19.2431 98.1528 19.9537 98.1528 20.7937C98.1528 21.6094 98.3324 22.3087 98.6898 22.8919C99.1236 23.5969 99.7276 23.9494 100.507 23.9494C101.272 23.9494 101.872 23.5912 102.304 22.8731C102.674 22.2787 102.86 21.5737 102.86 20.7581Z" fill="white"/>
<path d="M119.951 16.3481L117.132 25.1869H115.297L114.13 21.3487C113.833 20.3906 113.593 19.4381 113.405 18.4931H113.369C113.195 19.4644 112.954 20.415 112.645 21.3487L111.404 25.1869H109.549L106.898 16.3481H108.956L109.975 20.55C110.221 21.5437 110.424 22.4906 110.586 23.3869H110.623C110.772 22.6481 111.018 21.7069 111.366 20.5687L112.645 16.35H114.277L115.502 20.4787C115.798 21.4856 116.039 22.455 116.224 23.3887H116.28C116.415 22.4794 116.62 21.51 116.891 20.4787L117.984 16.35H119.951V16.3481Z" fill="white"/>
<path d="M130.334 25.1869H128.331V20.1244C128.331 18.5644 127.727 17.7844 126.516 17.7844C125.921 17.7844 125.442 17.9981 125.069 18.4275C124.7 18.8569 124.513 19.3631 124.513 19.9425V25.185H122.51V18.8738C122.51 18.0975 122.485 17.2556 122.437 16.3444H124.197L124.291 17.7263H124.346C124.58 17.2969 124.927 16.9425 125.384 16.6594C125.927 16.3294 126.535 16.1625 127.2 16.1625C128.041 16.1625 128.74 16.4288 129.296 16.9631C129.988 17.6175 130.334 18.5944 130.334 19.8919V25.1869Z" fill="white"/>
<path d="M135.857 25.1869H133.856V12.2925H135.857V25.1869Z" fill="white"/>
<path d="M147.649 20.6944C147.649 22.0537 147.253 23.1675 146.462 24.0412C145.632 24.9394 144.532 25.3875 143.161 25.3875C141.837 25.3875 140.784 24.9581 140 24.0956C139.217 23.235 138.825 22.1494 138.825 20.8406C138.825 19.4719 139.228 18.3487 140.039 17.4769C140.849 16.605 141.938 16.1681 143.309 16.1681C144.633 16.1681 145.694 16.5975 146.5 17.4581C147.265 18.2944 147.649 19.3744 147.649 20.6944ZM145.569 20.7581C145.569 19.9425 145.39 19.2431 145.032 18.66C144.614 17.955 144.014 17.6025 143.238 17.6025C142.431 17.6025 141.82 17.955 141.401 18.66C141.042 19.2431 140.864 19.9537 140.864 20.7937C140.864 21.6094 141.044 22.3087 141.401 22.8919C141.835 23.5969 142.439 23.9494 143.219 23.9494C143.983 23.9494 144.581 23.5912 145.013 22.8731C145.386 22.2787 145.569 21.5737 145.569 20.7581Z" fill="white"/>
<path d="M157.342 25.1869H155.543L155.394 24.1687H155.339C154.724 24.9806 153.846 25.3875 152.707 25.3875C151.857 25.3875 151.169 25.1194 150.651 24.5869C150.181 24.1031 149.946 23.5012 149.946 22.7869C149.946 21.7069 150.404 20.8837 151.328 20.3137C152.249 19.7437 153.544 19.4644 155.213 19.4775V19.3125C155.213 18.1481 154.59 17.5669 153.342 17.5669C152.453 17.5669 151.67 17.7862 150.993 18.2212L150.586 16.9312C151.423 16.4231 152.457 16.1681 153.676 16.1681C156.031 16.1681 157.212 17.3869 157.212 19.8244V23.0794C157.212 23.9625 157.256 24.6656 157.342 25.1869ZM155.263 22.1494V20.7862C153.053 20.7487 151.949 21.3431 151.949 22.5675C151.949 23.0287 152.075 23.3737 152.333 23.6044C152.591 23.835 152.92 23.9494 153.311 23.9494C153.751 23.9494 154.162 23.8125 154.536 23.5406C154.913 23.2669 155.144 22.92 155.23 22.4944C155.251 22.3987 155.263 22.2825 155.263 22.1494Z" fill="white"/>
<path d="M168.722 25.1869H166.945L166.852 23.7675H166.796C166.228 24.8475 165.261 25.3875 163.903 25.3875C162.817 25.3875 161.913 24.9694 161.197 24.1331C160.48 23.2969 160.122 22.2112 160.122 20.8781C160.122 19.4475 160.51 18.2887 161.29 17.4037C162.045 16.5787 162.97 16.1662 164.071 16.1662C165.281 16.1662 166.127 16.5656 166.609 17.3662H166.647V12.2925H168.652V22.8056C168.652 23.6662 168.675 24.4594 168.722 25.1869ZM166.647 21.4594V19.9856C166.647 19.7306 166.628 19.5244 166.592 19.3669C166.479 18.8944 166.236 18.4969 165.867 18.1762C165.495 17.8556 165.046 17.6944 164.528 17.6944C163.78 17.6944 163.196 17.985 162.766 18.5681C162.339 19.1512 162.123 19.8956 162.123 20.805C162.123 21.6787 162.328 22.3875 162.739 22.9331C163.173 23.5144 163.757 23.805 164.489 23.805C165.147 23.805 165.672 23.5631 166.072 23.0775C166.458 22.6294 166.647 22.0894 166.647 21.4594Z" fill="white"/>
<path d="M185.852 20.6944C185.852 22.0537 185.456 23.1675 184.665 24.0412C183.836 24.9394 182.739 25.3875 181.365 25.3875C180.044 25.3875 178.991 24.9581 178.204 24.0956C177.42 23.235 177.028 22.1494 177.028 20.8406C177.028 19.4719 177.431 18.3487 178.242 17.4769C179.052 16.605 180.141 16.1681 181.515 16.1681C182.836 16.1681 183.901 16.5975 184.703 17.4581C185.468 18.2944 185.852 19.3744 185.852 20.6944ZM183.776 20.7581C183.776 19.9425 183.597 19.2431 183.239 18.66C182.817 17.955 182.221 17.6025 181.441 17.6025C180.638 17.6025 180.027 17.955 179.604 18.66C179.245 19.2431 179.067 19.9537 179.067 20.7937C179.067 21.6094 179.247 22.3087 179.604 22.8919C180.038 23.5969 180.642 23.9494 181.422 23.9494C182.186 23.9494 182.788 23.5912 183.22 22.8731C183.589 22.2787 183.776 21.5737 183.776 20.7581Z" fill="white"/>
<path d="M196.621 25.1869H194.62V20.1244C194.62 18.5644 194.016 17.7844 192.802 17.7844C192.208 17.7844 191.728 17.9981 191.358 18.4275C190.987 18.8569 190.802 19.3631 190.802 19.9425V25.185H188.797V18.8738C188.797 18.0975 188.774 17.2556 188.726 16.3444H190.484L190.578 17.7263H190.633C190.868 17.2969 191.216 16.9425 191.671 16.6594C192.216 16.3294 192.822 16.1625 193.489 16.1625C194.328 16.1625 195.027 16.4288 195.583 16.9631C196.277 17.6175 196.621 18.5944 196.621 19.8919V25.1869Z" fill="white"/>
<path d="M210.1 17.82H207.895V22.1138C207.895 23.205 208.286 23.7506 209.062 23.7506C209.422 23.7506 209.72 23.7206 209.955 23.6588L210.006 25.1494C209.611 25.2956 209.091 25.3688 208.451 25.3688C207.659 25.3688 207.044 25.1325 206.599 24.66C206.152 24.1875 205.93 23.3925 205.93 22.2769V17.82H204.613V16.3481H205.93V14.7281L207.893 14.1469V16.3463H210.098V17.82H210.1Z" fill="white"/>
<path d="M220.703 25.1869H218.698V20.1619C218.698 18.5775 218.094 17.7844 216.884 17.7844C215.956 17.7844 215.321 18.2437 214.973 19.1625C214.914 19.3556 214.88 19.5919 214.88 19.8694V25.185H212.879V12.2925H214.88V17.6194H214.918C215.549 16.65 216.452 16.1662 217.624 16.1662C218.453 16.1662 219.14 16.4325 219.684 16.9669C220.363 17.6325 220.703 18.6225 220.703 19.9312V25.1869Z" fill="white"/>
<path d="M231.64 20.3493C231.64 20.7018 231.613 20.9981 231.566 21.24H225.559C225.586 22.1137 225.872 22.7793 226.428 23.2406C226.937 23.6531 227.592 23.8593 228.395 23.8593C229.284 23.8593 230.094 23.7206 230.824 23.4412L231.137 24.8062C230.283 25.17 229.278 25.3518 228.114 25.3518C226.719 25.3518 225.62 24.9487 224.825 24.1425C224.026 23.3362 223.631 22.2543 223.631 20.8968C223.631 19.5637 223.999 18.4537 224.743 17.5687C225.519 16.6237 226.568 16.1512 227.892 16.1512C229.188 16.1512 230.172 16.6237 230.837 17.5687C231.374 18.3187 231.64 19.2468 231.64 20.3493ZM229.729 19.8412C229.744 19.2581 229.612 18.7556 229.341 18.3318C228.993 17.7862 228.464 17.5125 227.747 17.5125C227.094 17.5125 226.56 17.7787 226.153 18.3131C225.821 18.7387 225.624 19.2468 225.559 19.8412H229.729Z" fill="white"/>
<path d="M102.522 59.07H98.1814L95.804 51.7406H87.5404L85.2757 59.07H81.0502L89.2374 34.1175H94.2942L102.522 59.07ZM95.0873 48.6656L92.9373 42.15C92.7099 41.4843 92.2837 39.9168 91.655 37.4493H91.5785C91.3282 38.5106 90.9249 40.0781 90.3707 42.15L88.2589 48.6656H95.0873Z" fill="white"/>
<path d="M123.576 49.8525C123.576 52.9125 122.733 55.3313 121.048 57.1069C119.538 58.6875 117.663 59.4769 115.425 59.4769C113.01 59.4769 111.274 58.6256 110.218 56.9231H110.141V66.4013H106.067V47.0006C106.067 45.0769 106.015 43.1025 105.916 41.0775H109.499L109.726 43.9294H109.803C111.162 41.7806 113.224 40.7081 115.991 40.7081C118.154 40.7081 119.96 41.5463 121.405 43.2244C122.854 44.9044 123.576 47.1131 123.576 49.8525ZM119.425 49.9988C119.425 48.2475 119.024 46.8038 118.217 45.6675C117.336 44.4825 116.153 43.89 114.67 43.89C113.665 43.89 112.752 44.22 111.936 44.8706C111.118 45.5269 110.583 46.3838 110.332 47.445C110.206 47.94 110.143 48.345 110.143 48.6638V51.6638C110.143 52.9725 110.552 54.0769 111.37 54.9788C112.188 55.8806 113.251 56.3306 114.558 56.3306C116.092 56.3306 117.287 55.7494 118.141 54.5906C118.997 53.43 119.425 51.9 119.425 49.9988Z" fill="white"/>
<path d="M144.669 49.8525C144.669 52.9125 143.826 55.3313 142.139 57.1069C140.631 58.6875 138.756 59.4769 136.518 59.4769C134.103 59.4769 132.367 58.6256 131.312 56.9231H131.236V66.4013H127.162V47.0006C127.162 45.0769 127.11 43.1025 127.011 41.0775H130.594L130.821 43.9294H130.898C132.255 41.7806 134.317 40.7081 137.086 40.7081C139.247 40.7081 141.053 41.5463 142.502 43.2244C143.945 44.9044 144.669 47.1131 144.669 49.8525ZM140.518 49.9988C140.518 48.2475 140.115 46.8038 139.309 45.6675C138.428 44.4825 137.248 43.89 135.763 43.89C134.756 43.89 133.845 44.22 133.027 44.8706C132.209 45.5269 131.676 46.3838 131.425 47.445C131.301 47.94 131.236 48.345 131.236 48.6638V51.6638C131.236 52.9725 131.645 54.0769 132.459 54.9788C133.277 55.8788 134.34 56.3306 135.651 56.3306C137.185 56.3306 138.38 55.7494 139.234 54.5906C140.09 53.43 140.518 51.9 140.518 49.9988Z" fill="white"/>
<path d="M168.252 52.0725C168.252 54.195 167.501 55.9219 165.993 57.255C164.336 58.7119 162.03 59.4394 159.066 59.4394C156.329 59.4394 154.135 58.9219 152.474 57.885L153.418 54.5531C155.207 55.6144 157.17 56.1469 159.308 56.1469C160.843 56.1469 162.037 55.8056 162.895 55.1269C163.75 54.4481 164.176 53.5369 164.176 52.4006C164.176 51.3881 163.824 50.535 163.119 49.8431C162.418 49.1512 161.246 48.5081 159.61 47.9137C155.157 46.2844 152.933 43.8975 152.933 40.7587C152.933 38.7075 153.713 37.0256 155.274 35.7169C156.83 34.4062 158.905 33.7519 161.5 33.7519C163.815 33.7519 165.737 34.1475 167.272 34.9369L166.253 38.1956C164.82 37.4306 163.199 37.0481 161.386 37.0481C159.952 37.0481 158.832 37.395 158.03 38.085C157.351 38.7019 157.011 39.4537 157.011 40.3444C157.011 41.3306 157.399 42.1462 158.179 42.7875C158.857 43.38 160.09 44.0212 161.879 44.7131C164.067 45.5775 165.674 46.5881 166.708 47.7469C167.738 48.9019 168.252 50.3475 168.252 52.0725Z" fill="white"/>
<path d="M181.724 44.0775H177.233V52.8131C177.233 55.035 178.024 56.145 179.61 56.145C180.338 56.145 180.942 56.0831 181.42 55.9593L181.533 58.995C180.73 59.2893 179.673 59.4375 178.364 59.4375C176.755 59.4375 175.497 58.9556 174.59 57.9937C173.686 57.03 173.231 55.4137 173.231 53.1431V44.0737H170.555V41.0737H173.231V37.7793L177.233 36.5943V41.0737H181.724V44.0775Z" fill="white"/>
<path d="M201.987 49.9256C201.987 52.6912 201.181 54.9619 199.572 56.7375C197.884 58.5656 195.644 59.4769 192.852 59.4769C190.161 59.4769 188.019 58.6012 186.421 56.85C184.824 55.0987 184.025 52.8881 184.025 50.2237C184.025 47.4356 184.846 45.1519 186.496 43.3762C188.141 41.5987 190.362 40.71 193.154 40.71C195.845 40.71 198.01 41.5856 199.644 43.3387C201.208 45.0394 201.987 47.235 201.987 49.9256ZM197.76 50.055C197.76 48.3956 197.399 46.9725 196.667 45.7856C195.812 44.3494 194.591 43.6331 193.009 43.6331C191.371 43.6331 190.127 44.3512 189.273 45.7856C188.541 46.9744 188.179 48.42 188.179 50.13C188.179 51.7894 188.541 53.2125 189.273 54.3975C190.154 55.8337 191.384 56.55 192.973 56.55C194.528 56.55 195.749 55.8187 196.63 54.36C197.381 53.1506 197.76 51.7125 197.76 50.055Z" fill="white"/>
<path d="M215.231 44.5931C214.828 44.52 214.398 44.4825 213.947 44.4825C212.514 44.4825 211.405 45.0131 210.625 46.0763C209.947 47.0138 209.607 48.1988 209.607 49.6294V59.07H205.534L205.572 46.7438C205.572 44.67 205.521 42.7819 205.42 41.0794H208.969L209.118 44.5219H209.23C209.66 43.3388 210.339 42.3863 211.268 41.6719C212.175 41.0288 213.156 40.7081 214.213 40.7081C214.589 40.7081 214.929 40.7344 215.231 40.7813V44.5931Z" fill="white"/>
<path d="M233.454 49.2225C233.454 49.9387 233.406 50.5425 233.305 51.0356H221.081C221.129 52.8131 221.719 54.1725 222.855 55.11C223.885 55.9481 225.217 56.3681 226.853 56.3681C228.663 56.3681 230.314 56.085 231.799 55.5168L232.437 58.2918C230.702 59.0343 228.653 59.4037 226.289 59.4037C223.445 59.4037 221.213 58.5825 219.589 56.9418C217.968 55.3012 217.156 53.0981 217.156 50.3343C217.156 47.6212 217.911 45.3618 219.422 43.56C221.005 41.6362 223.143 40.6743 225.834 40.6743C228.477 40.6743 230.478 41.6362 231.837 43.56C232.913 45.0881 233.454 46.9781 233.454 49.2225ZM229.568 48.1856C229.595 47.0006 229.33 45.9768 228.777 45.1125C228.072 44.0006 226.988 43.4456 225.53 43.4456C224.198 43.4456 223.115 43.9875 222.287 45.075C221.609 45.9393 221.205 46.9762 221.081 48.1837H229.568V48.1856Z" fill="white"/>
</svg>
