<svg width="20" height="20" viewBox="0 0 20 20" fill="none" xmlns="http://www.w3.org/2000/svg">
<g clip-path="url(#clip0_262_433)">
<path d="M16.9252 3.01099H2.91426C2.29494 3.01099 1.70098 3.25701 1.26305 3.69494C0.825126 4.13287 0.579102 4.72682 0.579102 5.34614L0.579102 6.90292H19.2604V5.34614C19.2604 4.72682 19.0143 4.13287 18.5764 3.69494C18.1385 3.25701 17.5445 3.01099 16.9252 3.01099Z" fill="white"/>
<path d="M0.579102 17.0217H19.2604V8.45947H0.579102V17.0217ZM6.0278 12.7406C6.0278 12.9715 5.95932 13.1973 5.83103 13.3893C5.70273 13.5813 5.52038 13.7309 5.30704 13.8193C5.09369 13.9077 4.85893 13.9308 4.63244 13.8857C4.40595 13.8407 4.19791 13.7295 4.03462 13.5662C3.87133 13.4029 3.76013 13.1949 3.71508 12.9684C3.67003 12.7419 3.69315 12.5071 3.78152 12.2938C3.86989 12.0804 4.01954 11.8981 4.21155 11.7698C4.40356 11.6415 4.6293 11.573 4.86022 11.573C5.16988 11.573 5.46686 11.696 5.68583 11.915C5.90479 12.1339 6.0278 12.4309 6.0278 12.7406Z" fill="white"/>
</g>
<defs>
<clipPath id="clip0_262_433">
<rect width="18.6813" height="18.6813" fill="white" transform="translate(0.579102 0.675781)"/>
</clipPath>
</defs>
</svg>
