<svg width="75" height="19" viewBox="0 0 75 19" fill="none" xmlns="http://www.w3.org/2000/svg">
<g clip-path="url(#clip0_94_2946)">
<mask id="mask0_94_2946" style="mask-type:luminance" maskUnits="userSpaceOnUse" x="-43" y="-285" width="263" height="374">
<path d="M-42.9521 88.9192H219.285V-284.559H-42.9521V88.9192Z" fill="white"/>
</mask>
<g mask="url(#mask0_94_2946)">
<path d="M1.79584 12.1342H2.60654C3.06927 12.1342 3.44304 12.1713 3.85523 12.6505C4.14688 12.9819 4.46747 13.714 4.46747 14.8983C4.46747 15.3234 4.47056 15.7443 4.39062 16.1769C4.26218 16.8592 3.94947 17.9528 2.16119 17.9528C1.68266 17.9528 1.79584 17.9403 1.79584 17.9403V12.135V12.1342ZM2.71551 18.9622C5.12236 18.9622 6.19995 17.8807 6.19995 14.9269C6.19995 14.146 5.972 12.8371 5.24975 12.0388C4.50275 11.2192 3.53675 11.1169 2.72077 11.1169H0.0380859V18.9622H2.71551Z" fill="#046148"/>
<path d="M10.3116 16.9301C10.3116 17.1898 10.3042 17.5386 10.0305 17.7883C9.80096 17.9918 9.47777 18.0073 9.35458 18.0073C9.04925 18.0073 8.77445 17.8954 8.65863 17.5153C8.62968 17.3955 8.61805 17.2747 8.61805 17.1591C8.61805 16.586 8.99552 16.3448 9.41508 16.242C9.63499 16.1907 9.78304 16.181 10.3116 16.1366L10.3116 16.9301ZM10.3116 15.4293L9.43461 15.5162C8.48965 15.6253 8.128 15.7123 7.72369 15.9827C7.07091 16.4296 7.0625 17.0833 7.0625 17.298C7.0625 17.8339 7.22403 18.2373 7.44417 18.4695C7.73421 18.8099 8.1938 18.9344 8.63758 18.9344C9.72571 18.9344 10.2448 18.4367 10.2448 18.4367L10.2522 18.7908H11.7194V15.0794C11.7194 14.6617 11.7293 14.0743 11.2535 13.6587C11.0045 13.444 10.7865 13.3449 10.4496 13.2966C10.1148 13.2361 9.99848 13.2117 9.67208 13.2117C8.6824 13.2117 7.93591 13.387 7.51056 14.1494C7.328 14.4797 7.3374 14.811 7.3374 15.0644H8.68242C8.6948 14.8435 8.70467 14.5375 8.87611 14.3249C8.96294 14.2041 9.16618 14.0318 9.54258 14.0318C9.66527 14.0318 10.0216 14.0318 10.2033 14.3308C10.3044 14.5074 10.3128 14.7368 10.3128 14.9971V15.4292L10.3116 15.4293Z" fill="#046148"/>
<path d="M21.9916 16.9301C21.9916 17.1898 21.9842 17.5386 21.7084 17.7883C21.4848 17.9918 21.1604 18.0073 21.0293 18.0073C20.7261 18.0073 20.4555 17.8954 20.3381 17.5153C20.3087 17.3955 20.3003 17.2747 20.3003 17.1591C20.3003 16.586 20.6756 16.3448 21.0973 16.242C21.3172 16.1907 21.4637 16.181 21.9917 16.1366L21.9916 16.9301ZM21.9916 15.4293L21.1183 15.5162C20.1675 15.6253 19.8112 15.7123 19.4042 15.9827C18.7551 16.4296 18.7451 17.0833 18.7451 17.298C18.7451 17.8339 18.9019 18.2373 19.1199 18.4695C19.4142 18.8099 19.8764 18.9344 20.3181 18.9344C21.4089 18.9344 21.9269 18.4367 21.9269 18.4367L21.9343 18.7908H23.3962V15.0794C23.3962 14.6617 23.4086 14.0743 22.9356 13.6587C22.6866 13.444 22.4644 13.3449 22.1317 13.2966C21.7953 13.2361 21.6806 13.2117 21.3521 13.2117C20.3629 13.2117 19.618 13.387 19.19 14.1494C19.0099 14.4797 19.0216 14.811 19.0216 15.0644H20.3629C20.3753 14.8435 20.3852 14.5375 20.5571 14.3249C20.6429 14.2041 20.8461 14.0318 21.223 14.0318C21.3457 14.0318 21.7016 14.0318 21.8879 14.3308C21.9841 14.5074 21.9926 14.7368 21.9926 14.9971V15.4292L21.9916 15.4293Z" fill="#046148"/>
<path d="M44.0952 18.7906H42.5643V15.4689C42.5643 15.2564 42.5643 15.0793 42.547 14.8985C42.5322 14.7246 42.4827 14.1606 41.8153 14.1606C41.6384 14.1606 41.4884 14.2047 41.3926 14.2455C40.9414 14.4538 40.9298 14.8228 40.9188 15.116V18.7908H39.3848V13.3549H40.9188V13.9731C41.3041 13.6258 41.6526 13.2457 42.5133 13.2457C43.2361 13.2457 43.5941 13.5277 43.742 13.7022C44.0826 14.0876 44.0826 14.5875 44.0958 14.9771V18.7908L44.0952 18.7906Z" fill="#046148"/>
<path d="M17.6186 18.7906H16.0888V15.4689C16.0888 15.2564 16.0888 15.0793 16.0636 14.8985C16.0536 14.7246 16.0015 14.1606 15.3303 14.1606C15.1591 14.1606 15.0091 14.2047 14.9133 14.2455C14.4611 14.4538 14.4479 14.8228 14.4353 15.116V18.7908H12.9023V13.3549H14.4353V13.9731C14.828 13.6258 15.1723 13.2457 16.032 13.2457C16.759 13.2457 17.1106 13.5277 17.2628 13.7022C17.6065 14.0876 17.6065 14.5875 17.6187 14.9771L17.6186 18.7906Z" fill="#046148"/>
<path d="M24.5215 13.3523H26.0539V13.9847C26.3482 13.7202 26.8673 13.241 27.7875 13.241C28.8403 13.241 29.133 13.8739 29.2046 14.0828C29.8316 13.4721 30.2438 13.241 30.8445 13.241C31.1387 13.241 31.3404 13.2893 31.5351 13.3608C32.3606 13.6799 32.3785 14.4189 32.3937 14.8981V18.7871H30.8345V15.2448C30.827 14.86 30.8147 14.6421 30.7155 14.4714C30.6957 14.4273 30.5433 14.1565 30.1559 14.1565C30.0248 14.1565 29.7747 14.1884 29.6574 14.2534C29.2283 14.4597 29.212 14.8185 29.2046 15.1096V18.787H27.6853V15.2675C27.6853 14.8493 27.6903 14.1564 26.9984 14.1564C26.842 14.1564 26.5698 14.201 26.4356 14.2757C26.0539 14.5126 26.0434 14.8599 26.0539 15.3434V18.7871H24.5215V13.3523Z" fill="#046148"/>
<path d="M36.9194 15.9553C36.9194 16.2638 36.907 16.5602 36.8751 16.8591C36.843 17.1592 36.7908 17.7625 36.3318 18.0159C36.1997 18.0794 36.0607 18.1128 35.9181 18.1128C35.0489 18.1128 34.9705 17.1946 34.9526 16.859C34.9328 16.6088 34.9172 16.3639 34.9172 16.1206C34.9172 15.9031 34.9321 15.6011 34.9635 15.2448C34.9947 14.957 35.0582 14.4062 35.5004 14.1459C35.6516 14.0689 35.7968 14.0373 35.9658 14.0373C36.7907 14.0373 36.8655 14.9088 36.885 15.2449C36.9072 15.4831 36.9194 15.7226 36.9194 15.9553ZM38.4821 15.9829C38.4821 15.5005 38.4821 14.5977 37.9493 13.9849C37.3066 13.212 36.3863 13.212 36.0605 13.212C35.6825 13.212 34.8134 13.2269 34.1311 13.8502C33.3594 14.5431 33.3594 15.6495 33.3594 16.2093C33.3594 17.2716 33.5973 18.395 34.9318 18.7872C35.3203 18.9066 35.5267 18.9277 35.9178 18.9277C36.2837 18.9277 37.1986 18.9277 37.8783 18.167C38.4821 17.4938 38.4821 16.4844 38.4821 15.9829Z" fill="#046148"/>
<path d="M11.8935 5.57959H26.0735L13.4971 1.69519L11.8935 2.56269L6.45117 3.97689L11.8935 5.57959Z" fill="#EF9826"/>
<path d="M0.0380859 0.0377035V5.57959H11.8954V2.56267L0.0380859 0.0377035Z" fill="#EB712D"/>
<path d="M26.0793 5.57959L11.8936 0.0377307L11.8958 2.56269L26.0793 5.57959Z" fill="#FEC02B"/>
<path d="M74.9632 15.9972V5.57607H55.8642L51.8945 8.45797L55.8642 11.9306L74.9632 15.9972Z" fill="#EF9826"/>
<path d="M55.8639 11.9307L50.6722 7.42333L26.0811 5.58361L55.8639 16.0037V11.9307Z" fill="#FEC02B"/>
<path d="M26.0752 5.57605V5.58101L55.8644 11.9292V5.5773H26.0752V5.57605Z" fill="#EB712D"/>
</g>
</g>
<defs>
<clipPath id="clip0_94_2946">
<rect width="75" height="19" fill="white"/>
</clipPath>
</defs>
</svg>
