<svg width="20" height="20" viewBox="0 0 20 20" fill="none" xmlns="http://www.w3.org/2000/svg">
<g clip-path="url(#clip0_262_438)">
<path d="M11.2429 6.12448V0.675781H5.01582C4.3965 0.675781 3.80254 0.921806 3.36462 1.35973C2.92669 1.79766 2.68066 2.39162 2.68066 3.01094V19.357H16.6916V6.12448H11.2429ZM5.79421 8.45964H13.5781V10.0164H5.79421V8.45964ZM5.79421 11.5732H13.5781V13.13H5.79421V11.5732ZM10.5696 17.0219C10.0065 17.0214 9.46076 16.8274 9.02373 16.4723C8.77932 16.2988 8.6937 16.2435 8.50844 16.2435C7.9946 16.2612 7.503 16.4575 7.11824 16.7985L6.02227 15.6932C6.69635 15.0592 7.58315 14.7002 8.50844 14.6867C9.02593 14.6929 9.52587 14.8752 9.92588 15.2036C10.1003 15.368 10.3299 15.4612 10.5696 15.4651C11.1339 15.4651 11.8835 14.6439 12.1583 14.2462L13.4426 15.1257C13.3095 15.3196 12.1038 17.0219 10.5696 17.0219ZM12.7997 0.846248C13.2635 0.993632 13.6863 1.2477 14.0342 1.58805L15.7793 3.33319C16.1215 3.68018 16.3768 4.10321 16.5243 4.56771H12.7997V0.846248Z" fill="white"/>
</g>
<defs>
<clipPath id="clip0_262_438">
<rect width="18.6813" height="18.6813" fill="white" transform="translate(0.345703 0.675781)"/>
</clipPath>
</defs>
</svg>
