<svg width="24" height="24" viewBox="0 0 24 24" fill="none" xmlns="http://www.w3.org/2000/svg">
<path d="M12 15.998C14.2083 15.998 15.9985 14.2078 15.9985 11.9995C15.9985 9.79116 14.2083 8.00098 12 8.00098C9.79165 8.00098 8.00146 9.79116 8.00146 11.9995C8.00146 14.2078 9.79165 15.998 12 15.998Z" fill="#3DA834"/>
<path d="M23.2668 9.41971C21.7164 6.89465 18.1897 2.6582 12 2.6582C5.81027 2.6582 2.28358 6.89465 0.733158 9.41971C-0.244386 11.0008 -0.244386 12.9986 0.733158 14.5798C2.28358 17.1049 5.81027 21.3413 12 21.3413C18.1897 21.3413 21.7164 17.1049 23.2668 14.5798C24.2443 12.9986 24.2443 11.0008 23.2668 9.41971ZM12 17.9975C8.68752 17.9975 6.0022 15.3122 6.0022 11.9997C6.0022 8.68728 8.68752 6.00196 12 6.00196C15.3124 6.00196 17.9978 8.68728 17.9978 11.9997C17.9944 15.3108 15.3111 17.9942 12 17.9975Z" fill="#3DA834"/>
</svg>
