<svg width="20" height="20" viewBox="0 0 20 20" fill="none" xmlns="http://www.w3.org/2000/svg">
<g clip-path="url(#clip0_262_428)">
<path d="M18.4868 13.1302C18.2803 13.1302 18.0824 13.2123 17.9364 13.3582C17.7904 13.5042 17.7084 13.7022 17.7084 13.9086V15.4654C17.7084 16.0847 17.4624 16.6787 17.0244 17.1166C16.5865 17.5545 15.9926 17.8006 15.3732 17.8006H13.8165C13.61 17.8006 13.412 17.8826 13.2661 18.0285C13.1201 18.1745 13.0381 18.3725 13.0381 18.5789C13.0381 18.7854 13.1201 18.9834 13.2661 19.1293C13.412 19.2753 13.61 19.3573 13.8165 19.3573H15.3732C16.4051 19.3561 17.3943 18.9457 18.1239 18.216C18.8535 17.4864 19.2639 16.4972 19.2652 15.4654V13.9086C19.2652 13.7022 19.1832 13.5042 19.0372 13.3582C18.8912 13.2123 18.6932 13.1302 18.4868 13.1302Z" fill="white"/>
<path d="M1.36237 6.90287C1.56881 6.90287 1.7668 6.82086 1.91277 6.67488C2.05875 6.52891 2.14076 6.33092 2.14076 6.12448V4.56771C2.14076 3.94839 2.38678 3.35443 2.82471 2.9165C3.26263 2.47858 3.85659 2.23255 4.47591 2.23255H6.03269C6.23913 2.23255 6.43711 2.15054 6.58309 2.00457C6.72906 1.85859 6.81107 1.66061 6.81107 1.45417C6.81107 1.24773 6.72906 1.04974 6.58309 0.903765C6.43711 0.75779 6.23913 0.675781 6.03269 0.675781H4.47591C3.44409 0.677017 2.45488 1.08746 1.72527 1.81707C0.995659 2.54668 0.58522 3.53589 0.583984 4.56771L0.583984 6.12448C0.583984 6.33092 0.665993 6.52891 0.811968 6.67488C0.957944 6.82086 1.15593 6.90287 1.36237 6.90287Z" fill="white"/>
<path d="M6.03268 17.8006H4.47591C3.85659 17.8006 3.26263 17.5545 2.82471 17.1166C2.38678 16.6787 2.14076 16.0847 2.14076 15.4654V13.9086C2.14076 13.7022 2.05875 13.5042 1.91277 13.3582C1.7668 13.2123 1.56881 13.1302 1.36237 13.1302C1.15593 13.1302 0.957944 13.2123 0.811968 13.3582C0.665993 13.5042 0.583984 13.7022 0.583984 13.9086L0.583984 15.4654C0.58522 16.4972 0.995659 17.4864 1.72527 18.216C2.45488 18.9457 3.44409 19.3561 4.47591 19.3573H6.03268C6.23913 19.3573 6.43711 19.2753 6.58309 19.1293C6.72906 18.9834 6.81107 18.7854 6.81107 18.5789C6.81107 18.3725 6.72906 18.1745 6.58309 18.0285C6.43711 17.8826 6.23913 17.8006 6.03268 17.8006Z" fill="white"/>
<path d="M15.3732 0.675781H13.8165C13.61 0.675781 13.412 0.75779 13.2661 0.903765C13.1201 1.04974 13.0381 1.24773 13.0381 1.45417C13.0381 1.66061 13.1201 1.85859 13.2661 2.00457C13.412 2.15054 13.61 2.23255 13.8165 2.23255H15.3732C15.9926 2.23255 16.5865 2.47858 17.0244 2.9165C17.4624 3.35443 17.7084 3.94839 17.7084 4.56771V6.12448C17.7084 6.33092 17.7904 6.52891 17.9364 6.67488C18.0824 6.82086 18.2803 6.90287 18.4868 6.90287C18.6932 6.90287 18.8912 6.82086 19.0372 6.67488C19.1832 6.52891 19.2652 6.33092 19.2652 6.12448V4.56771C19.2639 3.53589 18.8535 2.54668 18.1239 1.81707C17.3943 1.08746 16.4051 0.677017 15.3732 0.675781V0.675781Z" fill="white"/>
<path d="M9.92506 9.23807C11.6446 9.23807 13.0386 7.84409 13.0386 6.12453C13.0386 4.40497 11.6446 3.01099 9.92506 3.01099C8.2055 3.01099 6.81152 4.40497 6.81152 6.12453C6.81152 7.84409 8.2055 9.23807 9.92506 9.23807Z" fill="white"/>
<path d="M9.1459 10.795C7.90764 10.7963 6.72044 11.2887 5.84486 12.1643C4.96927 13.0399 4.47682 14.2271 4.47559 15.4654C4.47559 15.6718 4.55759 15.8698 4.70357 16.0158C4.84955 16.1617 5.04753 16.2437 5.25397 16.2437H14.5946C14.801 16.2437 14.999 16.1617 15.145 16.0158C15.291 15.8698 15.373 15.6718 15.373 15.4654C15.3717 14.2271 14.8793 13.0399 14.0037 12.1643C13.1281 11.2887 11.9409 10.7963 10.7027 10.795H9.1459Z" fill="white"/>
</g>
<defs>
<clipPath id="clip0_262_428">
<rect width="18.6813" height="18.6813" fill="white" transform="translate(0.583984 0.675781)"/>
</clipPath>
</defs>
</svg>
