<svg width="48" height="48" viewBox="0 0 48 48" fill="none" xmlns="http://www.w3.org/2000/svg">
<rect width="48" height="48" rx="18" fill="#322783"/>
<g clip-path="url(#clip0_94_2224)">
<path d="M24.5901 18.1064L30.174 14.8825C29.4199 14.2647 28.5428 13.8149 27.601 13.563L22.908 12.3041C21.9661 12.0524 20.9816 12.0039 20.0195 12.1616L23.2434 17.7455C23.5156 18.217 24.1186 18.3786 24.5901 18.1064Z" fill="white"/>
<path d="M31.532 16.3751L25.5758 19.8139C24.1612 20.6306 22.3523 20.1459 21.5356 18.7313L18.0968 12.7751C17.9539 12.8451 17.81 12.9133 17.6708 12.9937L13.8159 15.2194C11.461 16.5828 10.6539 19.595 12.0116 21.9531L18.9129 33.9065C20.2762 36.2614 23.2884 37.0685 25.6466 35.7108L34.1847 30.7813C36.5396 29.418 37.3467 26.4057 35.989 24.0475L31.7916 16.7773C31.7112 16.6382 31.6208 16.5071 31.532 16.3751Z" fill="white"/>
</g>
<defs>
<clipPath id="clip0_94_2224">
<rect width="23.6614" height="23.6614" fill="white" transform="translate(7.83984 18.6699) rotate(-30)"/>
</clipPath>
</defs>
</svg>
