<svg width="33" height="37" viewBox="0 0 33 37" fill="none" xmlns="http://www.w3.org/2000/svg">
<path d="M16.9198 25.0291C16.9198 25.0291 17.4291 25.5134 17.3349 25.7864C17.1189 26.4143 16.1517 26.7061 15.5236 26.5325C14.5209 26.2553 13.6041 25.077 13.6131 24.0146C13.6263 22.4555 15.185 21.1936 16.4788 20.3695C17.8107 19.5212 19.5027 19.2907 21.0713 19.3171C22.779 19.3463 24.6015 19.6767 26.0312 20.6325C26.8269 21.1644 27.4839 22.0059 27.7947 22.9247C27.971 23.4456 27.7947 24.5783 27.7947 24.5783C27.7947 24.5783 29.1978 22.5968 29.7052 21.4966C30.3098 20.1853 31.1976 18.802 31.0277 17.3626C30.95 16.7036 30.524 16.0636 29.999 15.6714C28.3152 14.4186 26.0181 14.2013 23.9371 14.1306C21.786 14.0577 19.5985 14.5266 17.5813 15.2956C16.2071 15.8184 14.8618 16.5574 13.7971 17.5879C12.5979 18.7484 11.4487 20.1605 11.0417 21.797C10.7778 22.8576 10.8341 24.0999 11.3356 25.0667C11.7884 25.9396 12.6805 26.5773 13.5765 26.9458C14.4542 27.3067 15.5054 27.4686 16.4055 27.1712C17.001 26.9748 17.8187 26.5708 17.8384 25.9308C17.8673 24.9887 16.92 25.0288 16.92 25.0288L16.9198 25.0291Z" fill="#18D1FF"/>
<path d="M16.4212 25.5836C16.4212 25.5836 16.2883 25.1646 16.4018 25.0142C16.5861 24.7708 17.0012 24.7047 17.2846 24.8127C17.6937 24.9712 18.06 25.4464 18.0608 25.8931C18.0617 26.4669 17.5689 27.0238 17.0688 27.2837C15.977 27.8513 14.5535 27.6897 13.3949 27.2837C12.4122 26.9395 11.4497 26.2512 10.9334 25.3295C10.1838 23.9925 10.0088 22.2467 10.3455 20.7446C10.6893 19.2105 11.8062 17.9255 12.8807 16.7985C14.0357 15.5869 15.4334 14.5601 16.9589 13.9047C18.7063 13.1543 20.6533 12.9537 22.5434 12.8148C24.1696 12.6954 25.8282 12.7299 27.43 13.0402C28.4346 13.2351 29.451 13.5247 30.3322 14.0549C30.6788 14.2635 31.2278 14.8818 31.2278 14.8818C31.2278 14.8818 30.9869 11.7182 30.5161 10.2217C30.1083 8.92584 29.6754 7.51959 28.7159 6.57654C28.0365 5.90865 27.0654 5.5782 26.1441 5.37653C24.3941 4.9938 22.5397 5.08584 20.7803 5.41139C18.7248 5.79158 16.7387 6.61059 14.8971 7.61923C13.1734 8.56339 11.5499 9.7523 10.1622 11.1614C9.02543 12.3158 7.95343 13.6131 7.29647 15.1075C6.63457 16.6133 6.2937 18.3044 6.30454 19.9554C6.31321 21.2774 6.58052 22.6393 7.1495 23.8263C7.68179 24.9368 8.5348 25.8916 9.46417 26.6825C10.2729 27.3707 11.2244 27.9077 12.2196 28.2562C13.1572 28.5845 14.1694 28.7695 15.159 28.7118C16.3166 28.6445 17.6341 28.5518 18.5169 27.783C19.0326 27.3338 19.4053 26.5791 19.3528 25.8884C19.316 25.4044 18.977 24.9252 18.5735 24.6695C18.1329 24.3901 17.5297 24.2181 17.0289 24.3556C16.5643 24.4829 16.1746 24.7378 16.1159 25.135C16.088 25.3235 16.4232 25.5838 16.4232 25.5838L16.4212 25.5836Z" fill="#0166FE"/>
<path d="M16.576 25.9194C16.576 25.9194 15.8636 25.7721 15.6781 25.4996C15.4117 25.1057 15.4303 24.5501 15.6917 24.1531C16.1223 23.4995 17.0442 23.249 17.8141 23.2184C19.1157 23.1638 20.7062 23.4529 21.5177 24.4953C22.195 25.3655 22.3319 26.8235 21.8402 27.8157C21.3468 28.8113 20.0663 29.198 19.0209 29.5183C17.3846 30.0197 15.5897 30.0459 13.9022 29.7737C12.159 29.4925 10.4564 28.799 8.95016 27.8569C7.29059 26.8202 5.7687 25.4624 4.62236 23.8556C3.3927 22.132 2.47464 20.1114 2.04225 18.0259C1.65121 16.138 1.70572 14.1289 2.08407 12.2369C2.51658 10.0926 3.35025 8.05413 4.5392 6.23356C5.44626 4.85059 6.66616 3.66723 7.99307 2.70057C9.18618 1.83245 10.5592 1.22097 11.9464 0.742552C13.0728 0.353958 14.2547 0.0830665 15.4418 0.018908C16.9166 -0.0607752 18.4111 0.117126 19.8527 0.444572C21.0607 0.718948 22.2532 1.12972 23.3481 1.7214C24.6382 2.41954 26.8853 4.36061 26.8853 4.36061C26.8853 4.36061 22.3288 3.91515 20.1021 4.31784C17.4786 4.79261 14.8884 5.75436 12.6119 7.1698C10.9167 8.22374 9.42158 9.65693 8.20091 11.2561C7.22322 12.5369 6.44532 14.01 5.95531 15.5556C5.45695 17.1239 5.19367 18.8062 5.28938 20.4506C5.35442 21.5636 5.63938 22.6855 6.12164 23.6855C6.60266 24.6835 7.30221 25.5901 8.11914 26.3247C9.18057 27.2764 10.4092 28.0131 11.7395 28.4956C12.8109 28.8815 13.9742 29.0209 15.1102 29.0063C16.0815 28.9937 17.1167 28.948 17.9815 28.4956C18.7063 28.1163 19.4815 27.5451 19.7292 26.7503C19.9308 26.1048 19.8086 25.2623 19.3751 24.7495C18.9474 24.2436 18.1693 24.1111 17.5155 24.1111C17.0354 24.111 16.4977 24.2405 16.1503 24.5794C15.9564 24.7685 15.8565 25.0114 15.9273 25.2756C16.0078 25.5754 16.5768 25.9204 16.5768 25.9204L16.5773 25.9199L16.576 25.9194ZM3.53116 31.8885L1.89884 33.492L1.28758 34.1246C1.86761 34.8013 2.45007 35.4757 3.03496 36.1476L3.61726 36.8831V36.9198L3.22173 36.8977L2.81907 36.9198C2.74236 36.807 2.6608 36.6943 2.57438 36.5815C2.49178 36.4638 2.4079 36.3529 2.32272 36.2488L0.755139 34.3731C0.731186 34.3536 0.700006 34.3414 0.661598 34.3364C0.642394 34.341 0.632793 34.346 0.632793 34.3511V36.9181L0.316396 36.8959L0 36.9181V31.8868L0.316396 31.909L0.632793 31.8868V34.1596C0.637542 34.1791 0.65912 34.184 0.697528 34.1743C0.740684 34.1645 0.781983 34.1449 0.821423 34.1154C0.859624 34.0811 0.93871 34.005 1.05868 33.8873C1.10184 33.8431 1.14737 33.799 1.19528 33.7548L2.96465 31.8871L3.25224 31.9093L3.53116 31.8885Z" fill="#0100CC"/>
<path d="M8.72328 34.3435C8.72328 34.0101 8.6921 33.7159 8.62974 33.4608C8.56738 33.201 8.44751 32.9558 8.27013 32.7253C8.09276 32.4949 7.87222 32.3183 7.60853 32.1957C7.3497 32.0732 7.07166 32.012 6.77441 32.012C6.14637 32.012 5.65027 32.2375 5.28613 32.6887C4.92662 33.1349 4.74687 33.7332 4.74687 34.4836C4.74687 35.2044 4.93865 35.7707 5.32221 36.1827C5.68171 36.5653 6.14425 36.7565 6.70983 36.7565C7.38578 36.7565 7.91068 36.4574 8.28454 35.8591C8.57693 35.3933 8.72312 34.8883 8.72312 34.3438L8.72328 34.3435ZM6.68831 36.9986C5.88774 36.9986 5.2454 36.7632 4.76128 36.2925C4.28191 35.8168 4.04222 35.1842 4.04222 34.3947C4.04222 33.6052 4.29869 32.9652 4.81161 32.4747C5.30533 32.004 5.93575 31.7686 6.70286 31.7686C7.45067 31.7686 8.07386 31.9672 8.57244 32.3643C9.14287 32.8203 9.42808 33.4603 9.42808 34.2843C9.42808 35.0983 9.174 35.7554 8.66582 36.2554C8.15765 36.7518 7.49842 37 6.68815 37L6.68831 36.9986Z" fill="#0100CC"/>
<path d="M15.0292 31.8885H15.1802C15.2809 32.8644 15.3432 33.4627 15.3671 33.6834C15.4438 34.4042 15.5062 34.9657 15.5541 35.3678C15.6057 35.7649 15.6752 36.2823 15.7627 36.9198L15.4247 36.8977L15.0868 36.9198C15.0437 36.4295 15.0024 35.9611 14.9629 35.5147C14.9294 35.0685 14.8881 34.6271 14.839 34.1907C14.7959 33.7543 14.7546 33.3987 14.7151 33.124C14.4227 33.6634 14.1687 34.1341 13.9529 34.5363C13.7036 35.007 13.4951 35.414 13.3272 35.7574C13.1451 36.1349 12.9797 36.4953 12.831 36.8386H12.7536L12.358 36.0074C12.1854 35.6396 12.032 35.3228 11.8978 35.0569C11.7636 34.7871 11.5982 34.4611 11.4016 34.0786C11.2338 33.7599 11.0684 33.4412 10.9054 33.1225C10.8228 33.8237 10.7437 34.5322 10.6681 35.2481C10.5914 35.9641 10.553 36.5207 10.553 36.9178L10.3014 36.8956L10.0424 36.9178C10.1431 36.2803 10.275 35.3756 10.438 34.2036C10.6011 33.0267 10.6994 32.2544 10.7329 31.8867H10.9187C11.1679 32.3868 11.3717 32.7963 11.53 33.115C11.7217 33.4926 11.9488 33.9265 12.2114 34.4169C12.499 34.9513 12.7459 35.3926 12.952 35.7409C13.6423 34.4562 14.3326 33.1714 15.0229 31.8867L15.0292 31.8885ZM16.8062 36.9225V31.8912L17.1226 31.9134L17.439 31.8912V36.9225L17.1226 36.9004L16.8062 36.9225ZM23.0108 31.8885V36.9198H22.7951L22.4212 36.4712L19.3149 32.9553H19.243V36.92L19.0417 36.8978L18.8404 36.92V31.8887H19.1191L22.5348 35.6768H22.6066V31.8887L22.8079 31.9109L23.0108 31.8885ZM24.3582 36.9225V31.8912H26.9109L26.8892 32.1119L26.9109 32.3326C26.7671 32.303 26.6496 32.2834 26.5586 32.2737C26.4675 32.2589 26.3692 32.2515 26.2637 32.2515L25.5446 32.2367H24.991V34.0815H26.1056C26.1966 34.0815 26.3165 34.0766 26.4652 34.0668C26.6186 34.052 26.7115 34.0446 26.7439 34.0446L26.7222 34.2358L26.7439 34.4417C26.6576 34.4417 26.5377 34.4368 26.3843 34.427C26.2309 34.4122 26.138 34.4048 26.1056 34.4048H24.991V36.9205L24.6746 36.8983L24.3582 36.9225Z" fill="#0100CC"/>
<path d="M32.2952 34.3435C32.2952 34.0101 32.264 33.7159 32.2017 33.4608C32.1393 33.201 32.0194 32.9558 31.842 32.7253C31.6647 32.4949 31.4441 32.3183 31.1805 32.1957C30.9216 32.0732 30.6436 32.012 30.3463 32.012C29.7183 32.012 29.2222 32.2375 28.858 32.6887C28.4985 33.1349 28.3188 33.7332 28.3188 34.4836C28.3188 35.2044 28.5106 35.7707 28.8941 36.1827C29.2536 36.5653 29.7162 36.7565 30.2817 36.7565C30.9577 36.7565 31.4826 36.4574 31.8565 35.8591C32.1488 35.3933 32.295 34.8883 32.295 34.3438L32.2952 34.3435ZM30.2602 36.9986C29.4597 36.9986 28.8173 36.7632 28.3332 36.2925C27.8538 35.8168 27.6141 35.1842 27.6141 34.3947C27.6141 33.6052 27.8706 32.9652 28.3835 32.4747C28.8772 32.004 29.5077 31.7686 30.2748 31.7686C31.0226 31.7686 31.6458 31.9672 32.1444 32.3643C32.7148 32.8203 33 33.4603 33 34.2843C33 35.0983 32.7459 35.7554 32.2377 36.2554C31.7296 36.7518 31.0703 37 30.2601 37L30.2602 36.9986Z" fill="#0100CC"/>
</svg>
