<svg width="20" height="20" viewBox="0 0 20 20" fill="none" xmlns="http://www.w3.org/2000/svg">
<g clip-path="url(#clip0_262_443)">
<path d="M11.5839 10.0166C11.5839 10.3245 11.4926 10.6255 11.3216 10.8815C11.1505 11.1375 10.9074 11.3371 10.6229 11.4549C10.3384 11.5727 10.0254 11.6036 9.72344 11.5435C9.42146 11.4834 9.14407 11.3352 8.92635 11.1174C8.70863 10.8997 8.56036 10.6223 8.50029 10.3203C8.44023 10.0184 8.47106 9.70535 8.58888 9.42089C8.70671 9.13642 8.90625 8.89329 9.16226 8.72223C9.41827 8.55117 9.71925 8.45987 10.0272 8.45987C10.44 8.45987 10.836 8.62388 11.128 8.91583C11.4199 9.20778 11.5839 9.60376 11.5839 10.0166ZM19.3678 6.12471V16.2437H0.686523V6.12471C0.686523 5.50539 0.932548 4.91143 1.37048 4.4735C1.8084 4.03558 2.40236 3.78955 3.02168 3.78955H17.0326C17.6519 3.78955 18.2459 4.03558 18.6838 4.4735C19.1218 4.91143 19.3678 5.50539 19.3678 6.12471ZM4.57845 13.1302C4.57845 12.9762 4.5328 12.8257 4.44727 12.6977C4.36174 12.5697 4.24017 12.47 4.09794 12.411C3.95571 12.3521 3.7992 12.3367 3.64821 12.3668C3.49722 12.3968 3.35852 12.4709 3.24966 12.5798C3.14081 12.6886 3.06667 12.8273 3.03664 12.9783C3.0066 13.1293 3.02202 13.2858 3.08093 13.4281C3.13985 13.5703 3.23961 13.6919 3.36762 13.7774C3.49562 13.8629 3.64612 13.9086 3.80007 13.9086C4.00651 13.9086 4.20449 13.8266 4.35047 13.6806C4.49644 13.5346 4.57845 13.3366 4.57845 13.1302ZM4.57845 6.90309C4.57845 6.74914 4.5328 6.59865 4.44727 6.47065C4.36174 6.34264 4.24017 6.24287 4.09794 6.18396C3.95571 6.12504 3.7992 6.10963 3.64821 6.13966C3.49722 6.1697 3.35852 6.24383 3.24966 6.35269C3.14081 6.46155 3.06667 6.60025 3.03664 6.75124C3.0066 6.90223 3.02202 7.05874 3.08093 7.20097C3.13985 7.3432 3.23961 7.46477 3.36762 7.5503C3.49562 7.63583 3.64612 7.68148 3.80007 7.68148C4.00651 7.68148 4.20449 7.59947 4.35047 7.4535C4.49644 7.30752 4.57845 7.10953 4.57845 6.90309ZM13.1407 10.0166C13.1407 9.40084 12.9581 8.79886 12.616 8.28685C12.2738 7.77483 11.7876 7.37575 11.2187 7.1401C10.6497 6.90444 10.0237 6.84278 9.41973 6.96292C8.81576 7.08306 8.26098 7.37959 7.82555 7.81503C7.39011 8.25047 7.09357 8.80525 6.97344 9.40921C6.8533 10.0132 6.91496 10.6392 7.15061 11.2081C7.38627 11.7771 7.78534 12.2633 8.29736 12.6055C8.80938 12.9476 9.41135 13.1302 10.0272 13.1302C10.8529 13.1302 11.6449 12.8021 12.2288 12.2182C12.8127 11.6343 13.1407 10.8424 13.1407 10.0166ZM17.0326 13.1302C17.0326 12.9762 16.987 12.8257 16.9014 12.6977C16.8159 12.5697 16.6943 12.47 16.5521 12.411C16.4099 12.3521 16.2534 12.3367 16.1024 12.3668C15.9514 12.3968 15.8127 12.4709 15.7038 12.5798C15.595 12.6886 15.5208 12.8273 15.4908 12.9783C15.4608 13.1293 15.4762 13.2858 15.5351 13.4281C15.594 13.5703 15.6938 13.6919 15.8218 13.7774C15.9498 13.8629 16.1003 13.9086 16.2542 13.9086C16.4607 13.9086 16.6587 13.8266 16.8046 13.6806C16.9506 13.5346 17.0326 13.3366 17.0326 13.1302ZM17.0326 6.90309C17.0326 6.74914 16.987 6.59865 16.9014 6.47065C16.8159 6.34264 16.6943 6.24287 16.5521 6.18396C16.4099 6.12504 16.2534 6.10963 16.1024 6.13966C15.9514 6.1697 15.8127 6.24383 15.7038 6.35269C15.595 6.46155 15.5208 6.60025 15.4908 6.75124C15.4608 6.90223 15.4762 7.05874 15.5351 7.20097C15.594 7.3432 15.6938 7.46477 15.8218 7.5503C15.9498 7.63583 16.1003 7.68148 16.2542 7.68148C16.4607 7.68148 16.6587 7.59947 16.8046 7.4535C16.9506 7.30752 17.0326 7.10953 17.0326 6.90309Z" fill="#AFAFAF"/>
</g>
<defs>
<clipPath id="clip0_262_443">
<rect width="18.6813" height="18.6813" fill="white" transform="translate(0.686523 0.675781)"/>
</clipPath>
</defs>
</svg>
