<svg width="35" height="34" viewBox="0 0 35 34" fill="none" xmlns="http://www.w3.org/2000/svg">
<path fill-rule="evenodd" clip-rule="evenodd" d="M32.6852 23.4726C31.6632 20.2341 28.9542 18.3811 25.2372 18.3811H25.2106C23.6958 18.3669 22.342 18.6757 21.1996 19.2665C24.3874 20.3021 26.7506 22.5999 27.8384 25.8512C29.5646 25.6089 31.0654 25.072 32.3926 24.2517L32.8308 23.9698L32.6852 23.4726Z" fill="#3DA834"/>
<path fill-rule="evenodd" clip-rule="evenodd" d="M22.8067 15.9351C23.5235 16.3389 24.3341 16.567 25.2105 16.567C27.9587 16.567 30.1889 14.3088 30.1889 11.5278C30.1889 8.7611 27.9587 6.50293 25.2105 6.50293C24.6659 6.50293 24.1479 6.59785 23.6565 6.75793C24.3733 7.9281 24.7849 9.31076 24.7849 10.7756C24.7849 12.7646 24.0541 14.5652 22.8067 15.9351Z" fill="#3DA834"/>
<path fill-rule="evenodd" clip-rule="evenodd" d="M13.0345 19.2405C11.9187 18.6767 10.6041 18.3806 9.11726 18.3806H9.06406C5.34706 18.3806 2.63806 20.235 1.62866 23.4721L1.46906 23.9694L1.90726 24.2513C3.16866 25.0319 4.65686 25.5546 6.31586 25.8238C7.41766 22.5598 9.82145 20.2478 13.0345 19.2405Z" fill="#3DA834"/>
<path fill-rule="evenodd" clip-rule="evenodd" d="M9.09082 16.5667C9.96722 16.5667 10.7764 16.3386 11.4946 15.9349C10.2458 14.565 9.51502 12.7644 9.51502 10.7754C9.51502 9.31194 9.92662 7.92785 10.6448 6.7591C10.1534 6.5976 9.63542 6.50269 9.09082 6.50269C6.34262 6.50269 4.11102 8.76085 4.11102 11.5276C4.11102 14.31 6.34262 16.5667 9.09082 16.5667Z" fill="#3DA834"/>
<path fill-rule="evenodd" clip-rule="evenodd" d="M17.1024 19.9797C17.08 19.9797 17.059 19.9797 17.038 19.9797C12.2584 19.9797 8.77382 22.3569 7.47742 26.5063L7.32062 27.0078L7.76442 27.2827C10.2956 28.8438 13.3196 29.6032 17.0086 29.6032H17.1276C20.8194 29.6032 23.8448 28.8438 26.376 27.2827L26.8212 27.0078L26.6644 26.5063C25.3666 22.3569 21.8834 19.9797 17.1024 19.9797Z" fill="#3DA834"/>
<path fill-rule="evenodd" clip-rule="evenodd" d="M17.1503 17.168C20.6307 17.168 23.4615 14.3035 23.4615 10.7816C23.4615 7.26123 20.6307 4.39673 17.1503 4.39673C13.6699 4.39673 10.8391 7.26123 10.8391 10.7816C10.8391 14.3035 13.6699 17.168 17.1503 17.168Z" fill="#3DA834"/>
</svg>
