<svg width="258" height="75" viewBox="0 0 258 75" fill="none" xmlns="http://www.w3.org/2000/svg">
<path d="M248.444 75H9.55555C4.30239 75 0 70.7789 0 65.625V9.375C0 4.2211 4.30239 4.76837e-06 9.55555 4.76837e-06H248.444C253.698 4.76837e-06 258 4.2211 258 9.375V65.625C258 70.7789 253.698 75 248.444 75Z" fill="black"/>
<path d="M248.444 1.50235C252.869 1.50235 256.469 5.03438 256.469 9.375V65.625C256.469 69.9656 252.869 73.4977 248.444 73.4977H9.55555C5.13133 73.4977 1.53128 69.9656 1.53128 65.625V9.375C1.53128 5.03438 5.13133 1.50235 9.55555 1.50235H248.444ZM248.444 4.76837e-06H9.55555C4.30239 4.76837e-06 0 4.2211 0 9.375V65.625C0 70.7789 4.30239 75 9.55555 75H248.444C253.698 75 258 70.7789 258 65.625V9.375C258 4.2211 253.698 4.76837e-06 248.444 4.76837e-06Z" fill="#A6A6A6"/>
<path d="M19.9425 14.1351C19.3811 14.7117 19.0562 15.6094 19.0562 16.7719V58.2375C19.0562 59.4 19.3811 60.2976 19.9425 60.8742L20.081 61.0008L43.7644 37.7742V37.2258L20.081 13.9992L19.9425 14.1351Z" fill="url(#paint0_linear_61_607)"/>
<path d="M51.6501 45.5203L43.7644 37.7742V37.2257L51.6597 29.4796L51.8364 29.5804L61.1866 34.8C63.8549 36.2812 63.8549 38.7187 61.1866 40.2093L51.8364 45.4195L51.6501 45.5203Z" fill="url(#paint1_linear_61_607)"/>
<path d="M51.8365 45.4195L43.7644 37.5L19.9424 60.8742C20.8287 61.7883 22.274 61.8984 23.9175 60.9844L51.8365 45.4195Z" fill="url(#paint2_linear_61_607)"/>
<path d="M51.8365 29.5805L23.9175 14.0156C22.274 13.1109 20.8287 13.2211 19.9424 14.1352L43.7644 37.5L51.8365 29.5805Z" fill="url(#paint3_linear_61_607)"/>
<path d="M90.6201 19.207C90.6201 20.7726 90.1423 22.0265 89.2011 22.9617C88.1189 24.0703 86.7095 24.6281 84.9823 24.6281C83.3316 24.6281 81.9221 24.0609 80.7659 22.9429C79.6073 21.8086 79.0292 20.4164 79.0292 18.75C79.0292 17.0836 79.6073 15.6914 80.7659 14.5664C81.9221 13.439 83.3316 12.8719 84.9823 12.8719C85.8041 12.8719 86.5876 13.0383 87.3354 13.3476C88.0807 13.6594 88.6875 14.0812 89.127 14.6015L88.1285 15.5906C87.3616 14.7023 86.3177 14.264 84.9823 14.264C83.7783 14.264 82.7344 14.6765 81.8481 15.5086C80.9714 16.343 80.5318 17.4234 80.5318 18.75C80.5318 20.0765 80.9714 21.1664 81.8481 22.0008C82.7344 22.8234 83.7783 23.2453 84.9823 23.2453C86.2604 23.2453 87.3354 22.8234 88.1834 21.9914C88.7424 21.4406 89.0602 20.6812 89.1438 19.7109H84.9823V18.3562H90.5341C90.601 18.6492 90.6201 18.9328 90.6201 19.207Z" fill="white" stroke="white" stroke-width="0.16" stroke-miterlimit="10"/>
<path d="M99.4279 14.5101H94.213V18.0726H98.9143V19.4273H94.213V22.9898H99.4279V24.3703H92.7366V13.1297H99.4279V14.5101Z" fill="white" stroke="white" stroke-width="0.16" stroke-miterlimit="10"/>
<path d="M105.644 24.3703H104.167V14.5101H100.969V13.1297H108.845V14.5101H105.644V24.3703Z" fill="white" stroke="white" stroke-width="0.16" stroke-miterlimit="10"/>
<path d="M114.545 24.3703V13.1297H116.019V24.3703H114.545Z" fill="white" stroke="white" stroke-width="0.16" stroke-miterlimit="10"/>
<path d="M122.552 24.3703H121.088V14.5101H117.877V13.1297H125.763V14.5101H122.552V24.3703Z" fill="white" stroke="white" stroke-width="0.16" stroke-miterlimit="10"/>
<path d="M140.674 22.9242C139.545 24.0609 138.145 24.6281 136.475 24.6281C134.795 24.6281 133.396 24.0609 132.266 22.9242C131.138 21.7898 130.577 20.3976 130.577 18.75C130.577 17.1023 131.138 15.7101 132.266 14.5758C133.396 13.439 134.795 12.8719 136.475 12.8719C138.135 12.8719 139.535 13.439 140.665 14.5851C141.802 15.7289 142.363 17.1117 142.363 18.75C142.363 20.3976 141.802 21.7898 140.674 22.9242ZM133.357 21.982C134.208 22.8234 135.242 23.2453 136.475 23.2453C137.698 23.2453 138.742 22.8234 139.583 21.982C140.431 21.1406 140.861 20.0601 140.861 18.75C140.861 17.4398 140.431 16.3594 139.583 15.518C138.742 14.6765 137.698 14.2547 136.475 14.2547C135.242 14.2547 134.208 14.6765 133.357 15.518C132.509 16.3594 132.079 17.4398 132.079 18.75C132.079 20.0601 132.509 21.1406 133.357 21.982Z" fill="white" stroke="white" stroke-width="0.16" stroke-miterlimit="10"/>
<path d="M144.435 24.3703V13.1297H146.226L151.797 21.8719H151.862L151.797 19.7109V13.1297H153.271V24.3703H151.733L145.899 15.1969H145.834L145.899 17.3672V24.3703H144.435Z" fill="white" stroke="white" stroke-width="0.16" stroke-miterlimit="10"/>
<path d="M130.214 40.786C125.725 40.786 122.058 44.1375 122.058 48.7617C122.058 53.3485 125.725 56.7352 130.214 56.7352C134.712 56.7352 138.379 53.3485 138.379 48.7617C138.379 44.1375 134.712 40.786 130.214 40.786ZM130.214 53.5945C127.751 53.5945 125.632 51.6 125.632 48.7617C125.632 45.886 127.751 43.9266 130.214 43.9266C132.676 43.9266 134.805 45.886 134.805 48.7617C134.805 51.6 132.676 53.5945 130.214 53.5945ZM112.419 40.786C107.92 40.786 104.263 44.1375 104.263 48.7617C104.263 53.3485 107.92 56.7352 112.419 56.7352C116.915 56.7352 120.574 53.3485 120.574 48.7617C120.574 44.1375 116.915 40.786 112.419 40.786ZM112.419 53.5945C109.953 53.5945 107.827 51.6 107.827 48.7617C107.827 45.886 109.953 43.9266 112.419 43.9266C114.882 43.9266 117.001 45.886 117.001 48.7617C117.001 51.6 114.882 53.5945 112.419 53.5945ZM91.2436 43.2305V46.6195H99.4924C99.2511 48.5133 98.6061 49.9055 97.6171 50.8758C96.4131 52.0477 94.5379 53.3484 91.2436 53.3484C86.1672 53.3484 82.1921 49.3289 82.1921 44.3485C82.1921 39.368 86.1672 35.3485 91.2436 35.3485C93.9884 35.3485 95.9855 36.4008 97.4595 37.7649L99.8938 35.3766C97.8322 33.4453 95.0897 31.9617 91.2436 31.9617C84.2824 31.9617 78.432 37.5188 78.432 44.3485C78.432 51.1781 84.2824 56.7352 91.2436 56.7352C95.0061 56.7352 97.8321 55.5258 100.054 53.257C102.33 51.0235 103.04 47.8828 103.04 45.3469C103.04 44.5594 102.973 43.8352 102.854 43.2305H91.2436ZM177.831 45.8578C177.16 44.0742 175.089 40.786 170.87 40.786C166.689 40.786 163.209 44.018 163.209 48.7617C163.209 53.2289 166.654 56.7352 171.271 56.7352C175.005 56.7352 177.16 54.5016 178.046 53.2008L175.275 51.3891C174.351 52.7156 173.092 53.5945 171.271 53.5945C169.463 53.5945 168.166 52.7813 167.334 51.1781L178.206 46.7649L177.831 45.8578ZM166.747 48.5133C166.654 45.4383 169.181 43.8633 170.992 43.8633C172.411 43.8633 173.615 44.5594 174.016 45.5555L166.747 48.5133ZM157.91 56.25H161.484V32.8125H157.91V56.25ZM152.058 42.5625H151.938C151.135 41.6297 149.604 40.786 147.664 40.786C143.594 40.786 139.872 44.2922 139.872 48.7875C139.872 53.257 143.594 56.7352 147.664 56.7352C149.604 56.7352 151.135 55.8844 151.938 54.9235H152.058V56.0672C152.058 59.1164 150.397 60.7547 147.719 60.7547C145.536 60.7547 144.181 59.2078 143.622 57.907L140.514 59.1797C141.41 61.2938 143.782 63.8953 147.719 63.8953C151.909 63.8953 155.445 61.4766 155.445 55.5914V41.2711H152.058V42.5625ZM147.97 53.5945C145.507 53.5945 143.446 51.5719 143.446 48.7875C143.446 45.9774 145.507 43.9266 147.97 43.9266C150.397 43.9266 152.311 45.9774 152.311 48.7875C152.311 51.5719 150.397 53.5945 147.97 53.5945ZM194.563 32.8125H186.016V56.25H189.58V47.3695H194.563C198.521 47.3695 202.403 44.5594 202.403 40.0899C202.403 35.6227 198.512 32.8125 194.563 32.8125ZM194.656 44.1094H189.58V36.0727H194.656C197.317 36.0727 198.837 38.2406 198.837 40.0899C198.837 41.9039 197.317 44.1094 194.656 44.1094ZM216.689 40.7414C214.114 40.7414 211.436 41.857 210.334 44.3297L213.497 45.6305C214.178 44.3297 215.43 43.9078 216.753 43.9078C218.602 43.9078 220.478 44.9977 220.506 46.9219V47.168C219.861 46.8024 218.481 46.261 216.782 46.261C213.375 46.261 209.904 48.1008 209.904 51.5344C209.904 54.675 212.695 56.6977 215.831 56.6977C218.23 56.6977 219.553 55.636 220.384 54.4008H220.506V56.2125H223.949V47.2219C223.949 43.0664 220.786 40.7414 216.689 40.7414ZM216.259 53.5852C215.093 53.5852 213.469 53.018 213.469 51.6C213.469 49.786 215.494 49.0899 217.248 49.0899C218.817 49.0899 219.553 49.4297 220.506 49.8774C220.227 52.0477 218.323 53.5852 216.259 53.5852ZM236.49 41.2547L232.393 51.4149H232.272L228.036 41.2547H224.192L230.556 55.4531L226.925 63.3539H230.65L240.456 41.2547H236.49ZM204.362 56.25H207.936V32.8125H204.362V56.25Z" fill="white"/>
<defs>
<linearGradient id="paint0_linear_61_607" x1="41.6617" y1="58.6693" x2="10.2004" y2="26.6021" gradientUnits="userSpaceOnUse">
<stop stop-color="#00A0FF"/>
<stop offset="0.0066" stop-color="#00A1FF"/>
<stop offset="0.2601" stop-color="#00BEFF"/>
<stop offset="0.5122" stop-color="#00D2FF"/>
<stop offset="0.7604" stop-color="#00DFFF"/>
<stop offset="1" stop-color="#00E3FF"/>
</linearGradient>
<linearGradient id="paint1_linear_61_607" x1="64.6612" y1="37.4973" x2="18.4183" y2="37.4973" gradientUnits="userSpaceOnUse">
<stop stop-color="#FFE000"/>
<stop offset="0.4087" stop-color="#FFBD00"/>
<stop offset="0.7754" stop-color="#FFA500"/>
<stop offset="1" stop-color="#FF9C00"/>
</linearGradient>
<linearGradient id="paint2_linear_61_607" x1="47.4471" y1="33.1948" x2="4.78309" y2="-10.2909" gradientUnits="userSpaceOnUse">
<stop stop-color="#FF3A44"/>
<stop offset="1" stop-color="#C31162"/>
</linearGradient>
<linearGradient id="paint3_linear_61_607" x1="13.9459" y1="74.6696" x2="32.9973" y2="55.2515" gradientUnits="userSpaceOnUse">
<stop stop-color="#32A071"/>
<stop offset="0.0685" stop-color="#2DA771"/>
<stop offset="0.4762" stop-color="#15CF74"/>
<stop offset="0.8009" stop-color="#06E775"/>
<stop offset="1" stop-color="#00F076"/>
</linearGradient>
</defs>
</svg>
