<svg width="24" height="24" viewBox="0 0 24 24" fill="none" xmlns="http://www.w3.org/2000/svg">
<g clip-path="url(#clip0_126_525)">
<path d="M23.351 0.64824C23.0559 0.349925 22.6812 0.142764 22.2716 0.0514534C21.8621 -0.0398576 21.4349 -0.0114673 21.041 0.13324L20.825 0.21024C15.9881 1.78349 11.5845 4.46273 7.964 8.03524C7.05539 8.96787 6.22867 9.97692 5.493 11.0512C4.093 13.0512 3.827 15.2402 5.547 16.9612L5.586 16.9992L3.293 19.2922C3.10553 19.4798 3.00021 19.7341 3.00021 19.9992C3.00021 20.2644 3.10553 20.5187 3.293 20.7062C3.48053 20.8937 3.73484 20.999 4 20.999C4.26516 20.999 4.51947 20.8937 4.707 20.7062L7 18.4132L7.038 18.4522C8.759 20.1722 10.953 19.9042 12.948 18.5062C14.0223 17.7706 15.0314 16.9439 15.964 16.0352C19.5366 12.4144 22.2159 8.01053 23.789 3.17324L23.866 2.95724C24.0107 2.56352 24.0392 2.13647 23.9478 1.72705C23.8565 1.31763 23.6493 0.94313 23.351 0.64824ZM11 13.9992C10.8022 13.9992 10.6089 13.9406 10.4444 13.8307C10.28 13.7208 10.1518 13.5647 10.0761 13.3819C10.0004 13.1992 9.98063 12.9981 10.0192 12.8042C10.0578 12.6102 10.153 12.432 10.2929 12.2921C10.4327 12.1523 10.6109 12.057 10.8049 12.0185C10.9989 11.9799 11.2 11.9997 11.3827 12.0754C11.5654 12.151 11.7216 12.2792 11.8315 12.4437C11.9414 12.6081 12 12.8015 12 12.9992C12 13.2645 11.8946 13.5188 11.7071 13.7063C11.5196 13.8939 11.2652 13.9992 11 13.9992ZM14 10.9992C13.8022 10.9992 13.6089 10.9406 13.4444 10.8307C13.28 10.7208 13.1518 10.5647 13.0761 10.3819C13.0004 10.1992 12.9806 9.99813 13.0192 9.80415C13.0578 9.61017 13.153 9.43199 13.2929 9.29213C13.4327 9.15228 13.6109 9.05704 13.8049 9.01846C13.9989 8.97987 14.2 8.99967 14.3827 9.07536C14.5654 9.15105 14.7216 9.27922 14.8315 9.44367C14.9414 9.60812 15 9.80146 15 9.99924C15 10.2645 14.8946 10.5188 14.7071 10.7063C14.5196 10.8939 14.2652 10.9992 14 10.9992ZM17 7.99924C16.8022 7.99924 16.6089 7.94059 16.4444 7.83071C16.28 7.72083 16.1518 7.56465 16.0761 7.38192C16.0004 7.1992 15.9806 6.99813 16.0192 6.80415C16.0578 6.61017 16.153 6.43199 16.2929 6.29213C16.4327 6.15228 16.6109 6.05704 16.8049 6.01846C16.9989 5.97987 17.2 5.99967 17.3827 6.07536C17.5654 6.15105 17.7216 6.27922 17.8315 6.44367C17.9414 6.60812 18 6.80146 18 6.99924C18 7.26446 17.8946 7.51881 17.7071 7.70635C17.5196 7.89388 17.2652 7.99924 17 7.99924ZM2.363 13.0372C2.05273 13.0374 1.74548 12.9764 1.45879 12.8577C1.17211 12.7391 0.911605 12.5651 0.692167 12.3458C0.472729 12.1264 0.298656 11.866 0.179892 11.5794C0.061128 11.2927 -2.78064e-08 10.9855 0 10.6752C0.00241739 10.0592 0.240336 9.46748 0.665 9.02124C2.37335 7.26509 4.67884 6.21442 7.125 6.07724C6.934 6.25924 6.739 6.43224 6.55 6.62124C5.55966 7.6349 4.65803 8.73158 3.855 9.89924C3.17969 10.8348 2.70945 11.9024 2.475 13.0322L2.363 13.0372ZM11 21.5242C12.1299 21.2902 13.1976 20.8199 14.133 20.1442C15.3026 19.3417 16.401 18.44 17.416 17.4492C17.606 17.2602 17.778 17.0652 17.961 16.8742C17.823 19.3204 16.772 21.6257 15.016 23.3342C14.5702 23.7589 13.9787 23.9969 13.363 23.9992C12.7363 23.9992 12.1353 23.7503 11.6921 23.3071C11.249 22.864 11 22.2629 11 21.6362V21.5242Z" fill="#3DA834"/>
</g>
<defs>
<clipPath id="clip0_126_525">
<rect width="24" height="24" fill="white"/>
</clipPath>
</defs>
</svg>
