<svg width="20" height="20" viewBox="0 0 20 20" fill="none" xmlns="http://www.w3.org/2000/svg">
<g clip-path="url(#clip0_262_448)">
<path d="M16.0914 2.72605L9.90788 0.675781L3.72438 2.72605C3.2585 2.88049 2.85312 3.17781 2.56584 3.57576C2.27855 3.97372 2.12396 4.45208 2.12402 4.94289V10.0094C2.12402 15.866 9.28517 19.1002 9.59186 19.2348L9.8674 19.357L10.1539 19.2621C10.4613 19.1601 17.6917 16.6856 17.6917 10.0094V4.94289C17.6918 4.45208 17.5372 3.97372 17.2499 3.57576C16.9626 3.17781 16.5573 2.88049 16.0914 2.72605ZM10.6863 15.5056H9.1295V13.9488H10.6863V15.5056ZM10.6863 12.3516H9.1295V4.56771H10.6863V12.3516Z" fill="#AFAFAF"/>
</g>
<defs>
<clipPath id="clip0_262_448">
<rect width="18.6813" height="18.6813" fill="white" transform="translate(0.567383 0.675781)"/>
</clipPath>
</defs>
</svg>
