<svg width="24" height="24" viewBox="0 0 24 24" fill="none" xmlns="http://www.w3.org/2000/svg">
<g clip-path="url(#clip0_126_534)">
<path d="M23.5349 14.7252C23.3278 14.4737 23.0621 14.2768 22.7612 14.152C22.4602 14.0272 22.1333 13.9781 21.8089 14.0092C19.9426 14.1185 18.1401 14.7278 16.5903 15.7732C15.0404 16.8187 13.8003 18.2617 12.9999 19.9512V13.9162C14.3972 13.6782 15.6654 12.9539 16.5804 11.8713C17.4953 10.7888 17.9981 9.4176 17.9999 8.00018C17.9999 5.20718 16.0569 2.84818 14.1559 0.90918C14.0459 0.796575 13.9269 0.693226 13.7999 0.60018C12.6515 2.88814 12.0361 5.40644 11.9999 7.96618C12.0044 8.0975 11.9829 8.22842 11.9368 8.35145C11.8907 8.47449 11.8208 8.58723 11.7311 8.68324C11.6414 8.77926 11.5336 8.85667 11.414 8.91105C11.2944 8.96543 11.1652 8.99571 11.0339 9.00018C10.9026 9.00464 10.7717 8.9832 10.6487 8.93707C10.5256 8.89094 10.4129 8.82103 10.3169 8.73133C10.2208 8.64163 10.1434 8.53389 10.0891 8.41427C10.0347 8.29466 10.0044 8.1655 9.99992 8.03418C10.0105 5.26317 10.6413 2.52967 11.8459 0.0341797C11.0932 0.0640624 10.3792 0.376064 9.84592 0.90818C7.94292 2.84818 5.99992 5.20718 5.99992 8.00018C6.00174 9.4176 6.50455 10.7888 7.4195 11.8713C8.33444 12.9539 9.60263 13.6782 10.9999 13.9162V19.9522C10.1997 18.2625 8.95971 16.8191 7.40983 15.7735C5.85996 14.7279 4.05733 14.1185 2.19092 14.0092C1.86661 13.9783 1.53967 14.0274 1.23876 14.1522C0.937845 14.2771 0.672138 14.4738 0.464924 14.7252C0.259037 14.9696 0.115684 15.2605 0.0472195 15.5727C-0.0212449 15.8849 -0.0127663 16.209 0.0719245 16.5172C2.11092 23.8552 11.5909 24.0002 11.9939 24.0002H12.0059C12.4059 24.0002 21.8899 23.8552 23.9289 16.5172C24.0131 16.2089 24.0213 15.8848 23.9527 15.5726C23.884 15.2605 23.7407 14.9697 23.5349 14.7252Z" fill="white"/>
</g>
<defs>
<clipPath id="clip0_126_534">
<rect width="24" height="24" fill="white"/>
</clipPath>
</defs>
</svg>
