<svg width="24" height="24" viewBox="0 0 24 24" fill="none" xmlns="http://www.w3.org/2000/svg">
<g clip-path="url(#clip0_314_638)">
<path d="M15 6.99939H10.17V5.41339C10.1699 5.01789 10.0526 4.63129 9.83278 4.30247C9.61302 3.97365 9.30069 3.71738 8.93529 3.56604C8.56989 3.4147 8.16782 3.37509 7.77992 3.45223C7.39201 3.52936 7.03568 3.71977 6.75598 3.99939L0.875979 9.87838C0.313566 10.441 -0.00238037 11.2039 -0.00238037 11.9994C-0.00238037 12.7949 0.313566 13.5578 0.875979 14.1204L6.75598 19.9994C7.03568 20.279 7.39201 20.4694 7.77992 20.5465C8.16782 20.6237 8.56989 20.5841 8.93529 20.4327C9.30069 20.2814 9.61302 20.0251 9.83278 19.6963C10.0526 19.3675 10.1699 18.9809 10.17 18.5854V16.9994H16C17.5908 17.001 19.116 17.6336 20.2409 18.7585C21.3657 19.8834 21.9984 21.4086 22 22.9994C22 23.2646 22.1053 23.5189 22.2929 23.7065C22.4804 23.894 22.7348 23.9994 23 23.9994C23.2652 23.9994 23.5196 23.894 23.7071 23.7065C23.8946 23.5189 24 23.2646 24 22.9994V15.9994C23.9973 13.6132 23.0483 11.3256 21.361 9.63835C19.6738 7.95109 17.3861 7.00203 15 6.99939Z" fill="#3DA834"/>
</g>
<defs>
<clipPath id="clip0_314_638">
<rect width="24" height="24" fill="white"/>
</clipPath>
</defs>
</svg>
