<svg width="29" height="29" viewBox="0 0 29 29" fill="none" xmlns="http://www.w3.org/2000/svg">
<g clip-path="url(#clip0_311_426)">
<path d="M0.673729 29C0.510887 29 0.352471 28.9356 0.234986 28.8168C0.0801094 28.6602 0.0203713 28.4327 0.0785606 28.2201L1.96385 21.3356C0.790107 19.2131 0.171265 16.8121 0.17215 14.3748C0.175469 6.4484 6.62585 0 14.5515 0C18.3958 0.00154877 22.008 1.49899 24.7229 4.21597C27.4375 6.93317 28.9318 10.5451 28.9307 14.3863C28.9272 22.3129 22.4768 28.7617 14.5515 28.7617C14.5515 28.7617 14.5456 28.7617 14.5454 28.7617C12.2304 28.7608 9.93534 28.1966 7.89186 27.128L0.830154 28.9799C0.778381 28.9934 0.725723 29 0.673729 29Z" fill="#E5E5E5"/>
<path d="M0.673706 28.3829L2.62604 21.2535C1.42176 19.1668 0.788315 16.7999 0.7892 14.375C0.792297 6.78889 6.96569 0.617065 14.5516 0.617065C18.2328 0.618614 21.6881 2.05144 24.2865 4.65204C26.8846 7.25263 28.315 10.7095 28.3137 14.386C28.3104 21.9719 22.1361 28.1446 14.5516 28.1446C14.5511 28.1446 14.5518 28.1446 14.5516 28.1446H14.5456C12.2423 28.1437 9.97937 27.566 7.96929 26.4697L0.673706 28.3829ZM8.30715 23.9791L8.72509 24.2266C10.481 25.2687 12.4941 25.8199 14.5471 25.821H14.5516C20.8559 25.821 25.9872 20.6906 25.9899 14.3851C25.991 11.3294 24.8024 8.45602 22.6428 6.29461C20.4829 4.1332 17.6113 2.9422 14.5558 2.94087C8.2463 2.94087 3.11523 8.0706 3.1128 14.3758C3.11191 16.5366 3.71637 18.6407 4.86158 20.4616L5.13372 20.8944L3.97789 25.1141L8.30715 23.9791Z" fill="white"/>
<path d="M1.15228 27.9026L3.03713 21.0197C1.87423 19.0054 1.26291 16.7201 1.26357 14.3795C1.26645 7.05601 7.22632 1.0979 14.5491 1.0979C18.1033 1.09945 21.4391 2.48272 23.947 4.99327C26.4556 7.50382 27.8362 10.841 27.8349 14.3899C27.8318 21.7135 21.8717 27.6723 14.5498 27.6723C14.5491 27.6723 14.55 27.6723 14.5498 27.6723H14.5438C12.3204 27.6714 10.1356 27.1134 8.19518 26.0558L1.15228 27.9026Z" fill="#64B161"/>
<path d="M0.673706 28.3829L2.62604 21.2535C1.42176 19.1668 0.788315 16.7999 0.7892 14.375C0.792297 6.78889 6.96569 0.617065 14.5516 0.617065C18.2328 0.618614 21.6881 2.05144 24.2865 4.65204C26.8846 7.25263 28.315 10.7095 28.3137 14.386C28.3104 21.9719 22.1361 28.1446 14.5516 28.1446C14.5511 28.1446 14.5518 28.1446 14.5516 28.1446H14.5456C12.2423 28.1437 9.97937 27.566 7.96929 26.4697L0.673706 28.3829ZM8.30715 23.9791L8.72509 24.2266C10.481 25.2687 12.4941 25.8199 14.5471 25.821H14.5516C20.8559 25.821 25.9872 20.6906 25.9899 14.3851C25.991 11.3294 24.8024 8.45602 22.6428 6.29461C20.4829 4.1332 17.6113 2.9422 14.5558 2.94087C8.2463 2.94087 3.11523 8.0706 3.1128 14.3758C3.11191 16.5366 3.71637 18.6407 4.86158 20.4616L5.13372 20.8944L3.97789 25.1141L8.30715 23.9791Z" fill="white"/>
<path fill-rule="evenodd" clip-rule="evenodd" d="M11.1119 8.62325C10.8544 8.05065 10.5831 8.03914 10.338 8.02919C10.1375 8.02056 9.90811 8.021 9.67911 8.021C9.44989 8.021 9.07731 8.10729 8.76224 8.45134C8.44696 8.79539 7.55841 9.6273 7.55841 11.3192C7.55841 13.0114 8.79078 14.6462 8.9627 14.8759C9.13461 15.1053 11.3416 18.6883 14.8367 20.0667C17.7415 21.2124 18.3325 20.9845 18.9631 20.9272C19.5936 20.8699 20.9975 20.0952 21.284 19.2923C21.5707 18.4894 21.5707 17.8013 21.4847 17.6573C21.3986 17.5141 21.1694 17.428 20.8256 17.2561C20.4817 17.0842 18.7912 16.2521 18.4759 16.1375C18.1606 16.0226 17.9314 15.9656 17.7021 16.3098C17.4727 16.6536 16.8143 17.428 16.6136 17.6573C16.4129 17.8871 16.2122 17.9159 15.8684 17.7438C15.5246 17.5714 14.417 17.2086 13.1032 16.037C12.081 15.1257 11.3907 13.9999 11.19 13.6557C10.9896 13.3118 11.1867 13.1419 11.3412 12.9541C11.6193 12.6158 12.0859 12.0075 12.2005 11.7783C12.3151 11.5487 12.2578 11.348 12.172 11.1759C12.0859 11.0039 11.4175 9.30339 11.1119 8.62325Z" fill="white"/>
</g>
<defs>
<clipPath id="clip0_311_426">
<rect width="29" height="29" fill="white"/>
</clipPath>
</defs>
</svg>
